<?xml version="1.0" standalone="no"?>
<!DOCTYPE svg PUBLIC "-//W3C//DTD SVG 20010904//EN"
 "http://www.w3.org/TR/2001/REC-SVG-20010904/DTD/svg10.dtd">
<svg version="1.0" xmlns="http://www.w3.org/2000/svg"
 width="300.000000pt" height="300.000000pt" viewBox="0 0 300.000000 300.000000"
 preserveAspectRatio="xMidYMid meet">
<metadata>
Created by potrace 1.14, written by Peter Selinger 2001-2017
</metadata>
<g transform="translate(0.000000,300.000000) scale(0.100000,-0.100000)"
fill="#000000" stroke="none">
<path d="M1346 2953 c-4 -5 -40 -13 -79 -20 -40 -6 -83 -15 -97 -18 -14 -4
-32 -7 -40 -7 -8 0 -19 -4 -25 -8 -5 -5 -27 -11 -48 -15 -20 -4 -40 -11 -43
-16 -3 -5 -12 -9 -20 -9 -9 0 -41 -12 -72 -27 -31 -15 -60 -28 -64 -29 -5 -1
-11 -3 -15 -4 -5 -1 -11 -2 -15 -1 -5 0 -8 -3 -8 -9 0 -5 -25 -21 -55 -35 -30
-15 -55 -30 -55 -35 0 -4 -8 -10 -17 -14 -21 -6 -53 -27 -68 -42 -5 -5 -30
-26 -55 -46 -47 -37 -172 -158 -164 -158 3 0 -5 -11 -18 -24 -13 -13 -30 -33
-38 -46 -8 -12 -21 -28 -28 -36 -6 -7 -12 -17 -12 -23 0 -6 -4 -11 -10 -11 -5
0 -10 -6 -10 -13 0 -7 -8 -22 -17 -33 -21 -23 -54 -85 -52 -98 0 -5 -3 -12 -8
-15 -7 -5 -46 -86 -49 -101 0 -3 -6 -18 -12 -33 -7 -16 -12 -34 -12 -40 0 -7
-8 -23 -17 -36 -10 -15 -11 -21 -3 -16 10 6 11 4 4 -6 -4 -8 -10 -23 -12 -34
-5 -28 -10 -50 -12 -52 -2 -2 -4 -12 -5 -23 -1 -11 -3 -21 -5 -22 -11 -14 -21
-528 -9 -528 3 0 6 -10 5 -23 -1 -12 2 -40 7 -62 5 -22 9 -48 9 -57 0 -10 4
-20 9 -23 5 -4 7 -11 4 -16 -4 -5 -3 -15 2 -21 4 -7 9 -22 10 -32 6 -33 75
-201 87 -208 6 -4 8 -8 4 -8 -10 0 46 -103 70 -128 6 -7 12 -20 12 -28 0 -8 5
-14 10 -14 6 0 18 -16 27 -35 9 -19 19 -32 23 -30 4 2 12 -7 18 -20 7 -14 16
-25 22 -25 5 0 10 -4 10 -9 0 -12 130 -141 142 -141 5 0 6 -5 2 -12 -4 -6 -3
-8 3 -5 6 4 17 0 24 -9 7 -9 40 -34 74 -57 33 -22 62 -43 65 -46 3 -3 27 -17
55 -31 27 -14 56 -31 64 -38 7 -7 20 -11 27 -8 8 3 14 2 14 -3 0 -8 41 -28 70
-33 8 -2 18 -7 21 -11 3 -5 15 -10 25 -12 10 -2 20 -4 22 -5 1 -2 7 -4 12 -5
6 -1 12 -4 15 -5 6 -3 10 -4 50 -14 17 -4 37 -10 45 -13 33 -13 223 -42 233
-36 4 2 7 -1 7 -8 0 -8 4 -8 13 -1 7 6 18 8 24 4 19 -12 189 -5 303 13 98 14
117 18 129 29 11 8 13 8 7 -1 -4 -8 11 -5 39 7 25 11 46 19 48 18 6 -5 97 25
97 32 0 4 6 7 14 7 20 0 226 105 226 115 0 4 5 8 12 8 6 0 26 11 44 25 19 14
36 26 38 26 17 0 226 202 226 218 0 7 5 9 10 6 6 -3 10 -1 10 4 0 6 8 19 18
29 10 10 28 34 41 55 12 20 27 37 32 37 6 0 8 4 4 9 -3 5 2 16 10 24 8 9 15
20 15 26 0 6 3 11 8 11 4 0 18 25 31 55 14 30 29 55 34 55 4 0 6 4 3 8 -3 5 6
30 19 57 13 27 21 53 19 57 -3 5 0 8 7 8 7 0 10 3 6 6 -3 3 1 23 8 45 8 22 14
41 15 44 0 3 0 6 1 8 4 13 10 46 12 64 1 13 5 23 8 23 3 0 5 10 4 22 -1 13 3
29 9 37 9 12 8 13 -4 6 -12 -7 -13 -6 -4 6 6 8 12 52 13 99 1 47 3 102 4 123
2 20 -1 37 -6 37 -4 0 -5 5 -1 11 4 7 6 53 4 103 -3 120 -3 126 -10 126 -3 0
-5 14 -4 30 1 17 -3 30 -9 30 -8 0 -7 4 2 9 8 5 9 11 3 15 -6 4 -9 15 -7 26 2
11 1 20 -3 20 -4 0 -9 11 -10 26 -1 14 -6 33 -12 43 -5 10 -6 21 -3 25 3 3 2
6 -4 6 -6 0 -9 9 -6 20 3 11 1 20 -4 20 -5 0 -16 23 -23 50 -7 27 -18 50 -23
50 -5 0 -6 7 -3 15 3 9 -1 18 -9 21 -8 4 -13 10 -10 14 3 5 -2 15 -10 23 -8 9
-15 19 -15 24 0 14 -92 157 -106 166 -8 4 -14 12 -14 17 0 12 -26 44 -67 86
-18 17 -33 36 -33 43 0 6 -4 11 -9 11 -5 0 -27 17 -49 38 -53 50 -101 90 -134
110 -16 9 -28 20 -28 24 0 4 -7 8 -15 8 -8 0 -15 3 -15 8 0 4 -10 12 -23 18
-46 21 -112 59 -118 67 -3 5 -10 9 -15 8 -5 0 -29 9 -54 20 -71 32 -221 79
-231 73 -5 -3 -9 -1 -9 5 0 5 -9 8 -20 6 -11 -2 -22 0 -25 4 -2 5 -35 12 -72
16 -38 5 -79 10 -93 12 -45 6 -251 4 -272 -3 -14 -4 -18 -2 -14 5 8 13 3 15
-8 4z"/>
</g>
</svg>
